PathFileType	4	(X/Y/Z)	regression/subject04/trials/walk2/markers.trc
DataRate	CameraRate	NumFrames	NumMarkers	Units	OrigDataRate	OrigDataStartFrame	OrigNumFrames
199.9999999999954	199.9999999999954	4	64	m	199.9999999999954	27	223
Frame#	Time	CLAV			C7			RACR			RASH			RPSH			RLEL			RMEL			RUA1			RUA2			RUA3			RFAsuperior			RFAradius			RFAulna			RASI			RPSI			RCAL			RTOE			RMT5			RTH1			RTH2			RTH3			RTB1			RTB2			RTB3			RLFC			RMFC			RLMAL			RMMAL			RHJC			RKJC			REJC			RAJC			RSJC			LACR			LASH			LPSH			LLEL			LMEL			LUA1			LUA2			LUA3			LFAsuperior			LFAradius			LFAulna			LASI			LPSI			LCAL			LTOE			LMT5			LTH1			LTH2			LTH3			LTB1			LTB2			LTB3			LLFC			LMFC			LLMAL			LMMAL			LHJC			LKJC			LEJC			LAJC			LSJC			
		X1	Y1	Z1	X2	Y2	Z2	X3	Y3	Z3	X4	Y4	Z4	X5	Y5	Z5	X6	Y6	Z6	X7	Y7	Z7	X8	Y8	Z8	X9	Y9	Z9	X10	Y10	Z10	X11	Y11	Z11	X12	Y12	Z12	X13	Y13	Z13	X14	Y14	Z14	X15	Y15	Z15	X16	Y16	Z16	X17	Y17	Z17	X18	Y18	Z18	X19	Y19	Z19	X20	Y20	Z20	X21	Y21	Z21	X22	Y22	Z22	X23	Y23	Z23	X24	Y24	Z24	X25	Y25	Z25	X26	Y26	Z26	X27	Y27	Z27	X28	Y28	Z28	X29	Y29	Z29	X30	Y30	Z30	X31	Y31	Z31	X32	Y32	Z32	X33	Y33	Z33	X34	Y34	Z34	X35	Y35	Z35	X36	Y36	Z36	X37	Y37	Z37	X38	Y38	Z38	X39	Y39	Z39	X40	Y40	Z40	X41	Y41	Z41	X42	Y42	Z42	X43	Y43	Z43	X44	Y44	Z44	X45	Y45	Z45	X46	Y46	Z46	X47	Y47	Z47	X48	Y48	Z48	X49	Y49	Z49	X50	Y50	Z50	X51	Y51	Z51	X52	Y52	Z52	X53	Y53	Z53	X54	Y54	Z54	X55	Y55	Z55	X56	Y56	Z56	X57	Y57	Z57	X58	Y58	Z58	X59	Y59	Z59	X60	Y60	Z60	X61	Y61	Z61	X62	Y62	Z62	X63	Y63	Z63	X64	Y64	Z64	

28	1.545	1.414874486007875	1.437913856897282	-0.451720431812289	1.302100504108282	1.519805171884953	-0.4517199939692578	1.377927344061398	1.487201127692239	-0.3012523497249294	1.418145813044941	1.420522308845905	-0.2564795685851163	1.318521853633458	1.441747760819792	-0.258235387395053	1.25085508214161	1.162702846574783	-0.1787971410703847	1.236128136634787	1.151097092184033	-0.2698792783639112	1.346376514697435	1.386204405368005	-0.2301275179879659	1.273174617070936	1.24411252824168	-0.2115576268359019	1.342178100944309	1.292961391327501	-0.2164796888073203	1.277889866539762	1.066000242674514	-0.226044399400604	1.334185359847552	0.8972542255795914	-0.2136865292070065	1.273138328656708	0.8817031953231775	-0.2043866399201257	1.402214542494907	0.9867649478402499	-0.3373050155327247	1.233124347651409	1.023815228165654	-0.420773740791031	1.406242122772425	0.04134187178779766	-0.378047627597154	1.666976881803198	0.06217150313595916	-0.4040725073824579	1.601107474355737	0.01940161023269037	-0.3097593739342911	1.394588297708934	0.7581449923882663	-0.3079582265718109	1.498632404430555	0.7041935811457334	-0.3712365723640582	1.443007548336416	0.6050217191413488	-0.3083622226455139	1.482362171369044	0.3201470121787301	-0.3253801420586779	1.528024510351611	0.2391197864129105	-0.3851946532626582	1.500782561110346	0.1656231902855902	-0.3195312191974476	1.472202478585643	0.4968983723259203	-0.3175318500446571	1.480161312964881	0.4960365998167187	-0.4361351888750047	1.483670317228323	0.06086266713926536	-0.3221965703540258	1.49467165425961	0.06148345198276201	-0.4228525030840804	1.322676049060877	0.8996151349449251	-0.3900637470964865	1.479847734638389	0.4949778700937412	-0.3790534677159521	1.247373567018847	1.150146152448569	-0.2302887323950796	1.477002213682454	0.04846361112694081	-0.3806263603958665	1.371476969258632	1.430465371823072	-0.2573020819066312	1.38538206036645	1.497468747560381	-0.6001063540399999	1.427894288213087	1.433949196365783	-0.6472886511509777	1.320300412048685	1.45687268449758	-0.6491849354657093	1.339771801805988	1.160372799817489	-0.7496382391795537	1.310368815341167	1.141783358878025	-0.6633977203163092	1.372222481786658	1.396565910778409	-0.6798394844742356	1.336909775109423	1.243104892559647	-0.712948227325497	1.391244099569729	1.305292953327342	-0.6941773672256977	1.384417370648805	1.074914761258932	-0.6939414827191759	1.492687777144345	0.9333938392541556	-0.6871249205286085	1.443599013064609	0.8996811626758424	-0.7096817638150728	1.39865584150935	0.9897256319940808	-0.602427145670268	1.231877760713822	1.024852334179186	-0.5136440846709464	0.8558550630277475	0.2592997448489404	-0.5861250632769032	1.002318333357927	0.04647153658620663	-0.5376849281755437	0.9313706177385143	0.07202260944058569	-0.6345176398055786	1.311200736796508	0.7475031410420131	-0.6398246909401603	1.374092548516918	0.6453106251699454	-0.5820199360922594	1.275924599673517	0.5910205988471897	-0.6475791729944245	1.116164756300096	0.3611718309563655	-0.6346085587112882	1.079233078714986	0.2769819680540915	-0.5731565087659782	1.004506197571904	0.2526930355262805	-0.6385896884632047	1.246724240762201	0.4825683633460047	-0.6440385798645077	1.253488081393738	0.4715755332379165	-0.5258681697595839	0.9108290829139685	0.2028142770395857	-0.6352121392707688	0.9176441764975178	0.196542213047128	-0.5343793703076131	1.320535797798702	0.9013957307361582	-0.5495118086112034	1.253448996923458	0.4703197267116793	-0.5827168321343369	1.32908925976346	1.145047474994568	-0.6999170846609759	0.8967228834752884	0.201810884996876	-0.5767976812913134	1.381225444426777	1.44389225934295	-0.6481111644724925	
29	1.55	1.421181298565599	1.438516420581176	-0.4511684436184723	1.308387699411132	1.520380079331076	-0.4508462170639091	1.38455967147853	1.487668044349935	-0.3005764637594277	1.424894641508981	1.420961438715576	-0.2559501148330286	1.325261839143083	1.442163956297575	-0.2574646909826591	1.259099449971335	1.162788455728189	-0.1770425194960891	1.243794921841509	1.151028146288881	-0.2680095395281381	1.353465849941104	1.386573499991117	-0.2292664122656197	1.280902950320387	1.244240951545145	-0.2100432109112299	1.349695406559382	1.293331351402569	-0.215488347450826	1.286584800811132	1.066281043381199	-0.2244285244218334	1.344374751343119	0.8980156490482682	-0.2124203399053084	1.28351772116223	0.881949852658814	-0.2027572884237626	1.408520256252919	0.9880068662509095	-0.3363633131103906	1.239495232945373	1.024408113235248	-0.4202485685163223	1.406649351668726	0.04177060938808331	-0.3779179258261157	1.667493972125499	0.06123646750733994	-0.4038976645318457	1.601388082757407	0.01873039253077517	-0.309630731314579	1.400403624050816	0.7585715144696851	-0.3070117537671141	1.50415374885086	0.7041066367999246	-0.3703329087562452	1.447979723901831	0.6051846008171886	-0.3075533229062548	1.485244627987228	0.3200731494659899	-0.3248965671013925	1.530153146871817	0.2387205336203007	-0.3848399828690257	1.502298871475251	0.1653849456348911	-0.3192534683178705	1.476579985062003	0.4969107339616525	-0.3168204132363101	1.484542242587323	0.4961141319913515	-0.435423977932492	1.484257804960571	0.06078356194735923	-0.3220410563476904	1.49520651839495	0.0614344536290416	-0.4227025365583735	1.329276532770001	0.9005105233318826	-0.3889918970360591	1.484248181007763	0.4949873067665375	-0.3783476833454845	1.255312805834162	1.150161795620409	-0.2284954520925864	1.477446645265986	0.04851811866953437	-0.3804825447274545	1.378221655240676	1.430893758076863	-0.256659618030323	1.391341740022749	1.498188890287775	-0.5994376824799423	1.433763500374499	1.434719468018906	-0.646768631621394	1.326160073819329	1.457618187007465	-0.648404373862995	1.344134060654447	1.16110430551602	-0.7482997790725343	1.315190765043281	1.14274473671199	-0.6618547566953684	1.377748021367456	1.397303919556993	-0.6790759217175876	1.341753305362172	1.243903103182791	-0.7117260392400379	1.39639522196211	1.305948617686626	-0.6933811765877755	1.388234541022877	1.075104608584686	-0.6930004137146591	1.494918193109454	0.9323405001976123	-0.6871587066179942	1.44531022021782	0.8992423169765376	-0.7094885474827886	1.405429523185614	0.9901339871246764	-0.601499309568674	1.238412571748238	1.025153228125953	-0.5131237696670162	0.8658911950702231	0.2667306399070606	-0.5865677675022304	1.004664686514599	0.04888292626829432	-0.5378022652339809	0.9347737329006349	0.07685601971957591	-0.6347340472404258	1.32027164566717	0.7481994112151894	-0.6394725497621291	1.384530029632651	0.6466210108215784	-0.5820898988266384	1.287166394593983	0.5912817553187723	-0.6479705185405751	1.126973831003173	0.3630782545570223	-0.6353430492067453	1.088561225702064	0.279624775437095	-0.5737944924080998	1.01332692769682	0.2566772675973101	-0.6391303348041657	1.259464964255107	0.4824213657258743	-0.6449488500728756	1.266299371964022	0.4709803292643581	-0.5268250538496142	0.9187485190229204	0.2085390623504257	-0.6356177850637204	0.9255571238036866	0.2022079077334382	-0.5347882707030417	1.327417723790209	0.9017898028086795	-0.5484482979450062	1.26630688716445	0.4697062354287982	-0.5836734225925567	1.333701869866843	1.145891703325295	-0.6984909282321818	0.904690215717045	0.2078343792000868	-0.5771874154855087	1.387090514106194	1.444651787380193	-0.6474781348186884	
30	1.555	1.427464121029292	1.439126224666183	-0.4506347357903752	1.314663422399148	1.520978197076982	-0.4499901699641207	1.391173264551587	1.48814350897782	-0.29991894477197	1.431614167135518	1.421402286670991	-0.2554404701544269	1.331976140512741	1.442596061644151	-0.2567146573917645	1.267346419722579	1.162886115017234	-0.1752964841557023	1.251452173777264	1.150967587368289	-0.26614170327816	1.360534996872763	1.386951972896986	-0.2284234911893453	1.288624263674364	1.244379595179997	-0.2085382257449221	1.357198684592037	1.293712437529558	-0.2145163832378077	1.2952971828491	1.066587733611903	-0.2228367893900697	1.354628541774713	0.8988325849381108	-0.2112127733300719	1.293975346237512	0.8822346876772817	-0.2011747367867529	1.414776742252962	0.9892611472907237	-0.3354871156516593	1.245799065930908	1.025023097338222	-0.4197419267561244	1.407021683165048	0.04217595075125741	-0.3777828400890405	1.667952904293657	0.06041404217102524	-0.4037838465786278	1.601656842222419	0.01816623913813311	-0.3095343637684353	1.406146210551208	0.7590057539449793	-0.3061409003817826	1.50954766064147	0.7039871316598835	-0.3695536064101904	1.452824164982836	0.6053437286920376	-0.306829681368558	1.488002913783574	0.3200056054818992	-0.324475045329532	1.532163149376335	0.2383412118089263	-0.3845503036781457	1.503750471708275	0.1651722803537025	-0.3190172034048172	1.480786544347577	0.4969121093281266	-0.3161984277013436	1.488690901926149	0.496166450222728	-0.4348061964267041	1.484820616276106	0.06073071515779105	-0.3219016843117921	1.49567881104876	0.06139949011489426	-0.4225728516358626	1.335813768074537	0.9014256371843454	-0.3879725179547004	1.488438618667948	0.4949806099845345	-0.3777341771196724	1.263247737298413	1.150187630174459	-0.2267078134242826	1.477850194371335	0.0485877366641545	-0.380349967870861	1.384938733564078	1.431330510557168	-0.2560373631657578	1.397288367672308	1.498924274694944	-0.598785291677193	1.43961084044723	1.435500211070307	-0.6462656930304878	1.33200177169463	1.458389488041319	-0.6476418152468123	1.348451278881086	1.161877647130692	-0.747010219037504	1.319959816298972	1.143739391076134	-0.6603685994281889	1.383250514483882	1.398065682171577	-0.6783347229708204	1.346559169037032	1.244736978891719	-0.7105451892608301	1.401512339562892	1.306628697115356	-0.6926152375048323	1.391997413816188	1.07534640599239	-0.6921004329694033	1.497086004430991	0.9313687128549741	-0.6872086225364729	1.446972331575	0.8988850551933775	-0.7093105291919385	1.412090695404935	0.9905799399279024	-0.6006327734142222	1.244858163357726	1.025485060757336	-0.5126205121910737	0.8761672906646202	0.2741364268031799	-0.5869327832613571	1.007383312520269	0.05171172393998002	-0.5379084052299151	0.9386495724573961	0.08202661137875231	-0.6349634941938241	1.329353082367863	0.7489249317178786	-0.6391081151701677	1.394974318348312	0.6480301346307149	-0.5820627536242664	1.298492037202365	0.5915898172712876	-0.6483049356737863	1.13796662878969	0.3650656092898799	-0.6360005232560947	1.09808696445865	0.2823849748264032	-0.5743420986508908	1.022395960154511	0.2607506639342211	-0.6395984276439738	1.27233647772633	0.4823352150791146	-0.645774569338366	1.279180281059787	0.4704978097110808	-0.5276903795908565	0.9269584532356008	0.2143481029907149	-0.6359673385036992	0.9337290391911366	0.2079899222787761	-0.5351369646676959	1.334198342901114	0.9022187770456951	-0.5474347293036823	1.279260606730798	0.4691848334128462	-0.5845400906491659	1.338264054527404	1.146772012053306	-0.6971181781797149	0.9129351543077278	0.2139554960223507	-0.577525628174717	1.39293540687579	1.445428434956484	-0.6468625860418186	
31	1.56	1.433726420983961	1.439744738560149	-0.4501166331421726	1.320931032868918	1.521600873000985	-0.4491511599566224	1.39776985757166	1.488630218226809	-0.299277959345249	1.438305702705094	1.421847969823932	-0.2549477369378358	1.338666047289141	1.443047071935202	-0.2559836608134426	1.275599198782614	1.162997420413468	-0.1735609650702963	1.259104890863314	1.150917291853798	-0.2642777799016235	1.367585337494884	1.387342522967096	-0.2275972834129389	1.29634139059636	1.24453039492115	-0.207043540879977	1.364690098208801	1.29410728936066	-0.2135630969180324	1.304028532204276	1.06692191490267	-0.2212709683127629	1.364942401566217	0.8997063104598811	-0.2100656143211109	1.304506847832649	0.8825607850131524	-0.1996426923664656	1.42097552489252	0.9904952908731476	-0.3346800238004259	1.252033774392196	1.025660829990771	-0.4192572970900224	1.407359779598542	0.04255083877350768	-0.3776457356985185	1.668358093505319	0.05969373968752435	-0.4037183949960764	1.601911869154095	0.01769490495188364	-0.3094633852217224	1.411798023487139	0.7594376039592112	-0.305357150704991	1.514805833873218	0.7038315750560241	-0.3688980077486891	1.45753176699528	0.6054926643871931	-0.3061962805542228	1.490636024918615	0.3199385394192268	-0.3241151651334721	1.534058782758945	0.2379749652120762	-0.3843204213156697	1.505134368069212	0.164977609115431	-0.3188198545108067	1.484820379308971	0.4968983544189256	-0.3156668468506327	1.492618797410512	0.4961899890849329	-0.4342818567435934	1.48535478661114	0.06069567765927969	-0.3217774086481706	1.496094276874484	0.06137041817958366	-0.4224612686167323	1.342270856113861	0.9023453961403815	-0.3870261483246563	1.492424944609315	0.4949539227426867	-0.3772131173064671	1.271182630173803	1.150225463227888	-0.224927749313152	1.478214288921257	0.04866419524992505	-0.3802282194466782	1.39162950612549	1.431778689207956	-0.2554330154773639	1.403226995355648	1.499675088748406	-0.5981474010592948	1.445441959807231	1.436291262044481	-0.6457770068715879	1.337831131958002	1.459186292324653	-0.6468958046572432	1.352735258050055	1.162691801632352	-0.7457673860470765	1.324684668036381	1.144766427749957	-0.6589378093329458	1.388737181966493	1.398850744295311	-0.6776137821097472	1.351337090903879	1.24560559979919	-0.7094040179640775	1.406603999972767	1.307332936295207	-0.6918762229923932	1.395713790553264	1.075637078032454	-0.691239389603731	1.499194351043386	0.930471128310483	-0.6872722180852004	1.448587643033185	0.8986040105156576	-0.7091470988350685	1.41863923898517	0.9910738318179708	-0.5998316425972307	1.251215390519432	1.025863488654031	-0.5121379706316855	0.8866583990172211	0.2813667957138566	-0.5873178006031795	1.010671288417902	0.05493248631744457	-0.5379003009958632	0.9431302395371571	0.0873471590596846	-0.6351140110595711	1.338428151270937	0.7496816075211507	-0.6387305340763365	1.40538885307455	0.6495399183797113	-0.5819151622599783	1.309868984290414	0.5919506980324951	-0.6485620155142865	1.149134824164889	0.3670985929523244	-0.6365699036836467	1.107820572383556	0.2852135311256762	-0.5747944593984805	1.031741829847255	0.2648331186207625	-0.6400035364830949	1.285294305600166	0.482320209832755	-0.6464822631676019	1.292069671712796	0.4701514946870898	-0.528427807665137	0.9355019883950682	0.2201252957738566	-0.6362882046129981	0.9421872989485338	0.2137786843738144	-0.5354514120688293	1.340865781935867	0.9026933385475697	-0.5464919447208539	1.292256913956619	0.4687764984143665	-0.5852800595331401	1.342785871430183	1.147687525658579	-0.6957968257093147	0.9214901104315175	0.2200553408331253	-0.5778424781527205	1.398765763227628	1.446221981428506	-0.6462622854111159	
